<?xml version="1.0" encoding="utf-8"?>
<!-- Generator: Adobe Illustrator 18.1.1, SVG Export Plug-In . SVG Version: 6.00 Build 0)  -->
<svg version="1.1" id="Layer_1" xmlns="http://www.w3.org/2000/svg" xmlns:xlink="http://www.w3.org/1999/xlink" x="0px" y="0px"
	 viewBox="0 0 115.3 63.3" enable-background="new 0 0 115.3 63.3" xml:space="preserve">
<g>
	<rect x="1" y="0.5" fill="#999999" stroke="#FFFFFF" stroke-miterlimit="10" width="113.8" height="62.3"/>
	<linearGradient id="SVGID_1_" gradientUnits="userSpaceOnUse" x1="45.8501" y1="9.4049" x2="45.8501" y2="62.5">
		<stop  offset="0.484" style="stop-color:#1A1A1A"/>
		<stop  offset="0.8408" style="stop-color:#1A1A1A;stop-opacity:5.088323e-02"/>
		<stop  offset="0.8599" style="stop-color:#1A1A1A;stop-opacity:0"/>
	</linearGradient>
	<path opacity="0.19" fill="url(#SVGID_1_)" d="M91.7,40.7l-2.1,0.7l-1.2-0.7l-0.8-1.2l-1.4-0.3l-1.1-2.1l-0.3-2.4l-0.3-2.1L84.1,31
		l-1,0.2l-1.8,1L80.9,31l-0.6-3.7l-0.3-5.2l-0.6-3.2l-1,0.3l-1.1,1.9L77,23.1l-1,0.2l-0.6-2.6L74.2,20l-1.3,0.3l-1.3,1L70.2,9.4
		l-1.9,10.7L67,20h-2.3L64,21l-1.5,2.6l-1.3,0.6l-1,0.8l-1.1,1.6l-0.3,3.6l-1.1-0.5l-2.4-1.9l-2.4-3.6l-3.6-3.7L48,21.8l-1.3,2.6
		l-0.3,4.4l-1.6,5.3l-0.5-1.1l-1.5-3.7l-1,2.1l-0.5-0.8l-1.8-2.4l-0.6,1.5l-0.3,1.1l-0.6,4.5l-0.8,9.4l-1-0.6l-1.3,1.4l-0.8,4.3
		L30,49h-1.4l-1.1,0.9L26,42h-1.5l-2.1-3l-2.6-2.9l-1.3,0.3L18.2,38l-1.3,2.3l-0.3,4.4l-1.6-2.1l-0.3-2.9l-0.8-6.5l-1-0.2l-1,0.8
		l-0.8,1.6l-0.6,1.8l-1.1-7.6l-0.5-1.1l-1,3.7l-1.3,0.3c0,0-1.6-1.6-2.1-2c-0.5-0.3-0.8-0.7-0.8-0.7l-1,0.4L0,30.6v31.9l91.7-0.2
		C91.7,62.3,91.3,41.1,91.7,40.7z"/>
	<path fill="none" stroke="#333333" stroke-linecap="round" stroke-linejoin="round" stroke-miterlimit="10" d="M0.8,30.6L3,30.2
		l0.6-0.4c0,0,0.3,0.4,0.8,0.7c0.5,0.3,2.1,2,2.1,2l1.3-0.3l1-3.7l0.5,1.1l1.1,7.6l0.6-1.8l0.8-1.6l1-0.8l1,0.2l0.8,6.5l0.3,2.9
		l1.6,2.1l0.3-4.4l1.3-2.3l0.3-1.6l1.3-0.3l2.6,2.7l2.1,2.7H26l1.4,7.9l1.1-0.9H30l4.1,0.9l0.8-4l1.3-1.4l1,0.6l0.8-9.4l0.6-4.5
		l0.3-1.1l0.6-1.5l1.8,2.4l0.5,0.8l1-2.1l1.5,3.7l0.5,1.1l1.6-5.3l0.3-4.4l1.3-2.6l1.3-1.3l3.6,3.7l2.4,3.6l2.4,1.9l1.1,0.5l0.3-3.6
		l1.1-1.6l1-0.8l1.3-0.6l1.5-2.7l0.6-1.3H67l1.2,0.4l1.9-10.5l1.5,11.9l1.3-1l1.3-0.3l1.1,0.6l0.6,2.6l1-0.2l0.2-1.9l1.1-1.9l1-0.3
		l0.6,3.2l0.3,5.2l0.6,3.7l0.5,1.1l1.8-1l1-0.2l0.3,1.6l0.3,2.1l0.3,2.4l1.1,2.1l1.5,0.3l0.8,1.1l1.3,0.6l2.3-0.8"/>
	<g>
		<g>
			<line fill="none" stroke="#FFFFFF" stroke-miterlimit="10" x1="2" y1="40.5" x2="3" y2="40.5"/>
			<line fill="none" stroke="#FFFFFF" stroke-miterlimit="10" stroke-dasharray="2,2" x1="5" y1="40.5" x2="100" y2="40.5"/>
			<line fill="none" stroke="#FFFFFF" stroke-miterlimit="10" x1="101" y1="40.5" x2="102" y2="40.5"/>
		</g>
	</g>
	<polygon fill="#333333" points="114.8,43 103.3,43 101.3,40.2 103.3,37.3 114.8,37.3 	"/>
	<circle fill="#333333" cx="93.5" cy="40.7" r="2"/>
</g>
</svg>
