<?xml version="1.0" encoding="utf-8"?>
<!-- Generator: Adobe Illustrator 18.1.1, SVG Export Plug-In . SVG Version: 6.00 Build 0)  -->
<svg version="1.1" id="Layer_1" xmlns="http://www.w3.org/2000/svg" xmlns:xlink="http://www.w3.org/1999/xlink" x="0px" y="0px"
	 viewBox="0 0 14.6 15.8" enable-background="new 0 0 14.6 15.8" xml:space="preserve">
<path fill-rule="evenodd" clip-rule="evenodd" fill="#FFFFFF" d="M0,14.5L0,1.3h0C0,1,0.2,0.6,0.4,0.4l0,0C0.6,0.1,1,0,1.3,0v0
	l2.8,0c0,0,0,0,0,0h7.5c0,0,0,0,0.1,0h0.9c0.1,0,0.2,0,0.3,0.1l1.7,1.7c0.1,0.1,0.1,0.2,0.1,0.3l0,12.3c0,0.4-0.1,0.7-0.4,0.9
	c-0.2,0.2-0.6,0.4-0.9,0.4v0l-12,0v0c-0.4,0-0.7-0.1-0.9-0.4l0,0C0.1,15.2,0,14.8,0,14.5L0,14.5L0,14.5z M11.9,7.7H2.7v5.5h9.2V7.7
	L11.9,7.7z M2.3,6.9c-0.2,0-0.4,0.2-0.4,0.4v6.4c0,0.2,0.2,0.4,0.4,0.4h10c0.2,0,0.4-0.2,0.4-0.4V7.3c0-0.2-0.2-0.4-0.4-0.4H2.3
	L2.3,6.9z M10.4,0.9v3c0,0.2-0.2,0.4-0.4,0.4H7.8c-0.2,0-0.4-0.2-0.4-0.4v-3H4.6v4.3h6.6V0.9L10.4,0.9L10.4,0.9z M9.5,0.9H8.3v2.6
	h1.3V0.9L9.5,0.9z M12,0.9v4.7C12,5.8,11.8,6,11.6,6H4.1C3.9,6,3.7,5.8,3.7,5.6V0.9l-2.4,0v0C1.2,0.9,1.1,0.9,1,1l0,0
	C0.9,1.1,0.9,1.2,0.9,1.3l0,0l0,6.6l0,6.6h0c0,0.1,0.1,0.2,0.1,0.3v0c0.1,0.1,0.2,0.1,0.3,0.1v0l12,0v0c0.1,0,0.2-0.1,0.3-0.1
	c0.1-0.1,0.1-0.2,0.1-0.3l0-12.2l-1.4-1.4H12z"/>
</svg>
