<?xml version="1.0" encoding="utf-8"?>
<!-- Generator: Adobe Illustrator 18.1.1, SVG Export Plug-In . SVG Version: 6.00 Build 0)  -->
<svg version="1.1" id="Layer_1" xmlns="http://www.w3.org/2000/svg" xmlns:xlink="http://www.w3.org/1999/xlink" x="0px" y="0px"
	 viewBox="0 0 16.9 16.9" enable-background="new 0 0 16.9 16.9" xml:space="preserve">
<path fill-rule="evenodd" clip-rule="evenodd" fill="#FFFFFF" d="M10.7,2.1l0.6,0.3c0,0,0,0,0,0c0,0,0,0,0,0l1.3-0.7
	c0.2-0.1,0.4-0.1,0.5-0.1c0.2,0,0.3,0.1,0.5,0.2h0l1.4,1.4c0.1,0.1,0.2,0.3,0.2,0.5c0,0.2,0,0.4-0.1,0.5l-0.7,1.3c0,0,0,0,0,0
	c0,0,0,0,0,0l0.3,0.6c0,0,0,0,0,0c0,0,0,0,0,0l1.4,0.5c0.2,0.1,0.3,0.2,0.4,0.3l0,0c0.1,0.1,0.2,0.3,0.2,0.5v1.9
	c0,0.2-0.1,0.4-0.2,0.5v0c-0.1,0.1-0.3,0.3-0.4,0.3l-1.4,0.5c0,0,0,0,0,0c0,0,0,0,0,0l-0.3,0.6c0,0,0,0,0,0c0,0,0,0,0,0l0.7,1.3
	c0.1,0.2,0.1,0.4,0.1,0.5c0,0.2-0.1,0.3-0.2,0.5l-1.4,1.4c-0.1,0.1-0.3,0.2-0.5,0.2c-0.2,0-0.4,0-0.5-0.1l-1.3-0.7c0,0,0,0,0,0
	c0,0,0,0,0,0l-0.6,0.3c0,0,0,0,0,0c0,0,0,0,0,0l-0.5,1.4c-0.1,0.2-0.2,0.3-0.3,0.4c-0.1,0.1-0.3,0.2-0.5,0.2H7.5
	c-0.2,0-0.4-0.1-0.5-0.2c-0.1-0.1-0.3-0.3-0.3-0.4l-0.5-1.4c0,0,0,0,0,0c0,0,0,0,0,0l-0.6-0.3c0,0,0,0,0,0c0,0,0,0,0,0l-1.3,0.7
	c-0.2,0.1-0.4,0.1-0.5,0.1c-0.2,0-0.3-0.1-0.5-0.2l-1.4-1.4l0,0c-0.1-0.1-0.2-0.3-0.2-0.5c0-0.2,0-0.4,0.1-0.5l0.7-1.3c0,0,0,0,0,0
	c0,0,0,0,0,0L2,10.7c0,0,0,0,0,0c0,0,0,0,0,0l-1.4-0.4c-0.2-0.1-0.3-0.2-0.4-0.3l0,0C0.1,9.7,0,9.6,0,9.4V7.5C0,7.3,0.1,7.1,0.2,7v0
	c0.1-0.1,0.3-0.3,0.4-0.3L2,6.2c0,0,0,0,0,0c0,0,0,0,0,0l0.3-0.6c0,0,0,0,0,0c0,0,0,0,0,0L1.6,4.2C1.5,4,1.5,3.8,1.5,3.6
	c0-0.2,0.1-0.3,0.2-0.5l0,0l1.4-1.4c0.1-0.1,0.3-0.2,0.5-0.2c0.2,0,0.4,0,0.5,0.1l1.3,0.7c0,0,0,0,0,0c0,0,0,0,0,0L6.2,2l0,0
	c0,0,0,0,0,0c0.2-0.5,0.3-0.9,0.5-1.4C6.7,0.4,6.8,0.3,7,0.2C7.1,0.1,7.3,0,7.5,0h1.9c0.2,0,0.4,0.1,0.5,0.2
	c0.1,0.1,0.3,0.3,0.3,0.4L10.7,2.1C10.7,2,10.7,2,10.7,2.1C10.7,2,10.7,2,10.7,2.1L10.7,2.1L10.7,2.1z M8.4,12.2
	c1.1,0,2-0.4,2.7-1.1c0.7-0.7,1.1-1.6,1.1-2.7s-0.4-2-1.1-2.7c-0.7-0.7-1.6-1.1-2.7-1.1s-2,0.4-2.7,1.1C5.1,6.4,4.6,7.4,4.6,8.4
	s0.4,2,1.1,2.7C6.4,11.8,7.4,12.2,8.4,12.2L8.4,12.2z M11.7,11.7c0.8-0.8,1.4-2,1.4-3.3c0-1.3-0.5-2.4-1.4-3.3
	c-0.8-0.8-2-1.4-3.3-1.4S6,4.3,5.2,5.2C4.3,6,3.8,7.2,3.8,8.4c0,1.3,0.5,2.4,1.4,3.3c0.8,0.8,2,1.4,3.3,1.4S10.9,12.5,11.7,11.7
	L11.7,11.7z M11,3.1l-0.6-0.3c-0.1,0-0.2-0.1-0.3-0.2C10,2.5,9.9,2.4,9.9,2.3L9.4,0.9c0,0,0,0,0,0c0,0,0,0,0,0H7.5c0,0,0,0,0,0
	c0,0,0,0,0,0L7,2.3c0,0.1-0.1,0.2-0.2,0.3C6.7,2.7,6.6,2.7,6.5,2.8l0,0L5.8,3.1c-0.1,0-0.2,0.1-0.4,0.1c-0.1,0-0.2,0-0.4-0.1
	L3.8,2.4c0,0,0,0,0,0c0,0,0,0,0,0L2.4,3.7h0c0,0,0,0,0,0c0,0,0,0,0,0L3,5.1c0.1,0.1,0.1,0.2,0.1,0.4c0,0.1,0,0.2-0.1,0.4L2.8,6.5
	C2.8,6.6,2.7,6.7,2.6,6.8C2.5,6.9,2.4,6.9,2.3,7L0.9,7.4c0,0,0,0,0,0c0,0,0,0,0,0v1.9c0,0,0,0,0,0l0,0c0,0,0,0,0,0l1.4,0.5
	c0.1,0,0.2,0.1,0.3,0.2c0.1,0.1,0.2,0.2,0.2,0.3L3.1,11c0,0.1,0.1,0.2,0.1,0.4c0,0.1,0,0.2-0.1,0.4l-0.7,1.3c0,0,0,0,0,0
	c0,0,0,0,0,0l1.4,1.4c0,0,0,0,0,0c0,0,0,0,0,0l1.3-0.7c0.1-0.1,0.2-0.1,0.4-0.1c0.1,0,0.2,0,0.4,0.1l0.6,0.3c0.1,0,0.2,0.1,0.3,0.2
	c0.1,0.1,0.1,0.2,0.2,0.3L7.4,16c0,0,0,0,0,0c0,0,0,0,0,0h1.9c0,0,0,0,0,0c0,0,0,0,0,0l0.5-1.4c0-0.1,0.1-0.2,0.2-0.3
	c0.1-0.1,0.2-0.2,0.3-0.2l0.6-0.3c0.1,0,0.2-0.1,0.4-0.1c0.1,0,0.2,0,0.4,0.1l1.3,0.7c0,0,0,0,0,0c0,0,0,0,0,0l1.4-1.4c0,0,0,0,0,0
	c0,0,0,0,0,0l-0.7-1.3c-0.1-0.1-0.1-0.2-0.1-0.4c0-0.1,0-0.2,0.1-0.4l0.3-0.6c0-0.1,0.1-0.2,0.2-0.3c0.1-0.1,0.2-0.1,0.3-0.2L16,9.4
	c0,0,0,0,0,0c0,0,0,0,0,0V7.5c0,0,0,0,0,0v0c0,0,0,0,0,0L14.6,7c-0.1,0-0.2-0.1-0.3-0.2c-0.1-0.1-0.2-0.2-0.2-0.3l-0.3-0.6
	c0-0.1-0.1-0.2-0.1-0.4c0-0.1,0-0.2,0.1-0.4l0.7-1.3c0,0,0,0,0,0c0,0,0,0,0,0l-1.4-1.4l0,0c0,0,0,0,0,0c0,0,0,0,0,0L11.8,3
	c-0.1,0.1-0.2,0.1-0.4,0.1C11.3,3.1,11.1,3.1,11,3.1L11,3.1z M8.4,6.4C7.9,6.4,7.3,6.6,7,7v0C6.6,7.3,6.4,7.9,6.4,8.4
	C6.4,9,6.6,9.5,7,9.9c0.4,0.4,0.9,0.6,1.5,0.6c0.6,0,1.1-0.2,1.4-0.6l0,0c0.4-0.4,0.6-0.9,0.6-1.5c0-0.6-0.2-1.1-0.6-1.5
	C9.5,6.6,9,6.4,8.4,6.4L8.4,6.4z M9.3,7.6C9.1,7.3,8.8,7.2,8.4,7.2c-0.3,0-0.7,0.1-0.9,0.4l0,0C7.3,7.8,7.2,8.1,7.2,8.4
	c0,0.3,0.1,0.7,0.4,0.9c0.2,0.2,0.5,0.4,0.9,0.4c0.3,0,0.6-0.1,0.9-0.3l0,0c0.2-0.2,0.4-0.5,0.4-0.9C9.7,8.1,9.5,7.8,9.3,7.6z"/>
</svg>
