<?xml version="1.0" encoding="utf-8"?>
<!-- Generator: Adobe Illustrator 18.1.1, SVG Export Plug-In . SVG Version: 6.00 Build 0)  -->
<svg version="1.1" id="Layer_1" xmlns="http://www.w3.org/2000/svg" xmlns:xlink="http://www.w3.org/1999/xlink" x="0px" y="0px"
	 viewBox="0 0 17.7 16.2" enable-background="new 0 0 17.7 16.2" xml:space="preserve">
<path fill-rule="evenodd" clip-rule="evenodd" fill="#FFFFFF" d="M6.7,3.5c-1.6,0-3.1,0.7-4.2,1.7C1.5,6.3,0.8,7.8,0.8,9.4
	c0,1.6,0.7,3.1,1.7,4.2c1.1,1.1,2.5,1.7,4.2,1.7c1.6,0,3.1-0.7,4.2-1.7c1.1-1.1,1.7-2.5,1.7-4.2c0-1.6-0.7-3.1-1.7-4.2
	C9.8,4.2,8.4,3.5,6.7,3.5L6.7,3.5z M4.9,3L4.9,3V0.4C4.9,0.2,5,0,5.3,0h12c0.2,0,0.4,0.2,0.4,0.4v3.3l0,0v3.3v3.3v3.3
	c0,0.2-0.2,0.4-0.4,0.4h-5.7l-0.1,0.1c-1.2,1.2-2.9,2-4.8,2c-1.9,0-3.5-0.8-4.8-2C0.8,13,0,11.3,0,9.4c0-1.9,0.8-3.5,2-4.8
	C2.8,3.9,3.7,3.3,4.9,3L4.9,3z M12.2,13.3c0.5-0.7,0.9-1.6,1.1-2.5h3.6v2.5H12.2L12.2,13.3z M13.4,10h3.4V7.5h-3.7
	c0.2,0.6,0.3,1.3,0.3,2C13.5,9.6,13.4,9.8,13.4,10L13.4,10z M12.9,6.7c-0.3-0.7-0.8-1.4-1.4-2c-0.2-0.2-0.4-0.4-0.6-0.5h6v2.5H12.9
	L12.9,6.7z M9.5,3.3h7.3V0.8H5.7v2C6,2.7,6.4,2.7,6.7,2.7C7.7,2.7,8.7,2.9,9.5,3.3L9.5,3.3z M6.3,5.4C6.3,5.2,6.5,5,6.7,5
	C7,5,7.1,5.2,7.1,5.4v0.4h1.5C8.8,5.9,9,6,9,6.3c0,0.2-0.2,0.4-0.4,0.4H7.1V9h0.8c0.4,0,0.7,0.2,1,0.4l0,0c0.3,0.3,0.4,0.6,0.4,1
	v1.1c0,0.4-0.2,0.8-0.4,1l0,0c-0.3,0.3-0.6,0.4-1,0.4H7.1v0.4c0,0.2-0.2,0.4-0.4,0.4c-0.2,0-0.4-0.2-0.4-0.4V13H4.5
	C4.2,13,4,12.8,4,12.6c0-0.2,0.2-0.4,0.4-0.4h1.9V9.9H5.5c-0.4,0-0.8-0.2-1-0.4C4.2,9.2,4,8.8,4,8.4V7.3c0-0.4,0.2-0.8,0.4-1
	c0.3-0.3,0.6-0.4,1-0.4h0.8V5.4L6.3,5.4z M7.1,9.9h0.8c0.2,0,0.3,0.1,0.4,0.2l0,0c0.1,0.1,0.2,0.3,0.2,0.5v1.1
	c0,0.2-0.1,0.3-0.2,0.5c-0.1,0.1-0.3,0.2-0.5,0.2H7.1V9.9L7.1,9.9z M6.3,9H5.5C5.3,9,5.2,9,5.1,8.8C4.9,8.7,4.9,8.6,4.9,8.4V7.3
	c0-0.2,0.1-0.3,0.2-0.5c0.1-0.1,0.3-0.2,0.5-0.2h0.8V9z"/>
</svg>
