<?xml version="1.0" encoding="utf-8"?>
<!-- Generator: Adobe Illustrator 18.1.1, SVG Export Plug-In . SVG Version: 6.00 Build 0)  -->
<svg version="1.1" id="Layer_1" xmlns="http://www.w3.org/2000/svg" xmlns:xlink="http://www.w3.org/1999/xlink" x="0px" y="0px"
	 viewBox="0 0 15.5 16.1" enable-background="new 0 0 15.5 16.1" xml:space="preserve">
<path fill-rule="evenodd" clip-rule="evenodd" fill="#FFFFFF" d="M7.8,1.5c-1.9,0-3.6,0.8-4.9,2c-1.3,1.3-2,3-2,4.9s0.8,3.6,2,4.9
	c1.3,1.3,3,2,4.9,2c1.9,0,3.6-0.8,4.9-2c1.3-1.3,2-3,2-4.9s-0.8-3.6-2-4.9C11.4,2.2,9.7,1.5,7.8,1.5L7.8,1.5z M14,3.8
	c-0.2-0.3-0.5-0.6-0.8-0.9c-0.7-0.7-1.5-1.3-2.5-1.7c0,0,0.1-0.1,0.1-0.1C11,1,11.1,1,11.3,0.9c0.2-0.1,0.3-0.1,0.5-0.1
	c0.2,0,0.3,0.1,0.5,0.2c0.3,0.2,0.6,0.4,0.9,0.6c0.3,0.2,0.5,0.5,0.8,0.7c0.1,0.1,0.2,0.3,0.3,0.4c0.1,0.2,0.1,0.3,0.1,0.5l0,0
	c0,0.2-0.1,0.3-0.2,0.5C14.1,3.8,14.1,3.8,14,3.8L14,3.8z M10,1c0.1-0.1,0.2-0.3,0.3-0.4c0.2-0.2,0.4-0.4,0.7-0.5
	C11.3,0,11.6,0,11.9,0c0.3,0,0.6,0.1,0.8,0.3c0.3,0.2,0.7,0.4,1,0.7c0.3,0.2,0.6,0.5,0.9,0.8c0.2,0.2,0.4,0.5,0.5,0.7
	c0.1,0.3,0.1,0.6,0.1,0.9l0,0c0,0.3-0.1,0.6-0.3,0.8c-0.1,0.1-0.2,0.3-0.3,0.4c0.6,1.1,1,2.4,1,3.8c0,2.1-0.9,4.1-2.3,5.5
	c-1.4,1.4-3.3,2.3-5.5,2.3c-2.1,0-4.1-0.9-5.5-2.3C0.9,12.5,0,10.5,0,8.4C0,7,0.4,5.7,1,4.6C0.9,4.4,0.8,4.3,0.7,4.2
	C0.5,3.9,0.4,3.6,0.4,3.3c0-0.3,0-0.6,0.1-0.9C0.6,2.2,0.8,1.9,1,1.7C1.2,1.5,1.5,1.2,1.8,1c0.3-0.2,0.6-0.5,1-0.7
	C3.1,0.1,3.4,0,3.6,0c0.3,0,0.6,0,0.9,0.1C4.8,0.2,5,0.4,5.2,0.6C5.3,0.7,5.4,0.8,5.5,1C6.2,0.8,7,0.6,7.8,0.6C8.5,0.6,9.3,0.8,10,1
	L10,1z M4.7,1.3C3.8,1.6,3,2.2,2.3,2.9C2,3.2,1.7,3.5,1.5,3.8c0,0-0.1-0.1-0.1-0.1C1.3,3.6,1.2,3.4,1.2,3.2c0-0.2,0-0.3,0.1-0.5
	c0.1-0.2,0.1-0.3,0.3-0.4c0.3-0.3,0.5-0.5,0.8-0.7C2.6,1.4,2.9,1.2,3.2,1c0.2-0.1,0.3-0.1,0.5-0.2c0.2,0,0.3,0,0.5,0.1
	C4.4,1,4.5,1,4.7,1.3C4.7,1.2,4.7,1.2,4.7,1.3L4.7,1.3z M7.3,9.6c-0.2,0.2-0.4,0.2-0.6,0C6.6,9.4,6.6,9.1,6.7,9l0.5-0.5L5.1,6.9
	C4.9,6.8,4.9,6.5,5,6.3c0.1-0.2,0.4-0.2,0.6-0.1l1.7,1.3l0-0.2c0-0.2,0.1-0.4,0.4-0.5C7.8,6.8,8,7,8.1,7.2l0.1,0.4l2.4-2.4
	C10.7,5,11,5,11.1,5.2c0.2,0.2,0.2,0.4,0,0.6L8.5,8.4c0.1,0.1,0.2,0.4,0,0.5c0,0.1-0.1,0.1-0.2,0.1l0.5,3.5c0,0.2-0.1,0.4-0.4,0.5
	c-0.2,0-0.4-0.1-0.5-0.4L7.5,9.4L7.3,9.6L7.3,9.6z M11.4,4.7c0.2,0.2,0.5,0.5,0.7,0.8c0.2,0.3,0.3,0.6,0.5,0.9
	c0.1,0.3,0.2,0.6,0.3,1C12.9,7.7,13,8,13,8.4c0,0.3,0,0.7-0.1,1c-0.1,0.3-0.2,0.7-0.3,1l0,0c-0.1,0.3-0.3,0.6-0.5,0.9
	c-0.2,0.3-0.4,0.5-0.6,0.8l0,0c-0.2,0.2-0.5,0.5-0.8,0.7c-0.3,0.2-0.6,0.3-0.9,0.5c-0.3,0.1-0.6,0.2-1,0.3c-0.3,0.1-0.7,0.1-1,0.1
	c-0.3,0-0.7,0-1-0.1c-0.3-0.1-0.7-0.2-1-0.3c-0.3-0.1-0.6-0.3-0.9-0.5c-0.3-0.2-0.5-0.4-0.8-0.6l0,0c-0.2-0.2-0.5-0.5-0.7-0.8
	c-0.2-0.3-0.3-0.6-0.5-0.9l0,0c-0.1-0.3-0.2-0.6-0.3-1c-0.1-0.3-0.1-0.7-0.1-1c0-0.3,0-0.7,0.1-1c0.1-0.3,0.2-0.7,0.3-1l0,0
	c0.1-0.3,0.3-0.6,0.5-0.9C3.6,5.2,3.8,5,4.1,4.7l0,0c0.2-0.2,0.5-0.5,0.8-0.6c0.3-0.2,0.6-0.3,0.9-0.5c0.3-0.1,0.6-0.2,1-0.3
	c0.3-0.1,0.7-0.1,1-0.1c0.3,0,0.7,0,1,0.1c0.3,0.1,0.7,0.2,1,0.3l0,0c0.3,0.1,0.6,0.3,0.9,0.5C10.9,4.3,11.2,4.5,11.4,4.7L11.4,4.7z
	 M11.1,3.4c0.3,0.2,0.6,0.5,0.9,0.8c0.3,0.3,0.5,0.6,0.8,0.9c0.2,0.3,0.4,0.7,0.6,1c0.1,0.4,0.3,0.7,0.3,1.1
	c0.1,0.4,0.1,0.8,0.1,1.2c0,0.4,0,0.8-0.1,1.2c-0.1,0.4-0.2,0.8-0.3,1.1l0,0c-0.2,0.4-0.3,0.7-0.6,1c-0.2,0.3-0.5,0.6-0.7,0.9l0,0
	c-0.3,0.3-0.6,0.5-0.9,0.8c-0.3,0.2-0.7,0.4-1,0.6h0c-0.4,0.1-0.7,0.3-1.1,0.3c-0.4,0.1-0.8,0.1-1.2,0.1c-0.4,0-0.8,0-1.2-0.1
	c-0.4-0.1-0.8-0.2-1.1-0.3c-0.4-0.2-0.7-0.3-1-0.6c-0.3-0.2-0.6-0.5-0.9-0.7l0,0c-0.3-0.3-0.5-0.6-0.8-0.9c-0.2-0.3-0.4-0.7-0.5-1
	l0,0C2,10.3,1.9,10,1.8,9.6C1.8,9.2,1.7,8.8,1.7,8.4c0-0.4,0-0.8,0.1-1.2C1.9,6.8,2,6.4,2.2,6.1c0.2-0.4,0.3-0.7,0.6-1
	C3,4.7,3.2,4.4,3.5,4.1l0,0c0.3-0.3,0.6-0.5,0.9-0.8c0.3-0.2,0.7-0.4,1-0.6h0c0.4-0.1,0.7-0.3,1.1-0.3C7,2.4,7.3,2.4,7.8,2.4
	c0.4,0,0.8,0,1.2,0.1C9.3,2.6,9.7,2.7,10,2.8l0,0C10.4,3,10.8,3.2,11.1,3.4z"/>
</svg>
