<?xml version="1.0" encoding="utf-8"?>
<!-- Generator: Adobe Illustrator 18.1.1, SVG Export Plug-In . SVG Version: 6.00 Build 0)  -->
<svg version="1.1" id="Layer_1" xmlns="http://www.w3.org/2000/svg" xmlns:xlink="http://www.w3.org/1999/xlink" x="0px" y="0px"
	 viewBox="0 0 15.8 15.6" enable-background="new 0 0 15.8 15.6" xml:space="preserve">
<path fill-rule="evenodd" clip-rule="evenodd" fill="#FFFFFF" d="M10.5,7.4c-0.8,0-1.5,0.3-2,0.8c-0.5,0.5-0.8,1.2-0.8,2
	c0,0.8,0.3,1.5,0.8,2c0.5,0.5,1.2,0.8,2,0.8c0.8,0,1.5-0.3,2-0.8c0.5-0.5,0.8-1.2,0.8-2c0-0.8-0.3-1.5-0.8-2
	C12,7.8,11.3,7.4,10.5,7.4L10.5,7.4z M13.9,11.9l1.6,1.6c0.2,0.2,0.3,0.5,0.3,0.7c0,0.3-0.1,0.5-0.3,0.7c0,0-0.2,0.2-0.2,0.2l0,0
	c-0.2,0.2-0.4,0.3-0.6,0.3c-0.3,0-0.5-0.1-0.7-0.3l-1.7-1.7c-0.1,0-0.1,0.1-0.2,0.1l0,0.7h0c0,0.4-0.1,0.7-0.4,0.9
	c-0.2,0.2-0.6,0.4-0.9,0.4H1.3l0,0c-0.4,0-0.7-0.1-0.9-0.4C0.2,15,0,14.7,0,14.3h0v-13C0,1,0.1,0.6,0.4,0.4C0.6,0.2,1,0,1.3,0v0l0,0
	l6.3,0c0,0,0,0,0,0C7.8,0,8,0.1,8,0.1L11.9,4C12,4.1,12,4.2,12,4.3c0,0,0,0,0,0l0,2.5c0.4,0.2,0.8,0.5,1.1,0.8
	c0.7,0.7,1.1,1.6,1.1,2.6C14.2,10.9,14.1,11.4,13.9,11.9L13.9,11.9z M12.9,13.1c0.1-0.1,0.2-0.2,0.3-0.2c0.1-0.1,0.2-0.2,0.3-0.3
	l1.5,1.5c0,0,0.1,0.1,0.1,0.2c0,0.1,0,0.1-0.1,0.2l-0.2,0.2h0l0,0c0,0-0.1,0.1-0.1,0.1c0,0-0.1,0-0.1,0L12.9,13.1L12.9,13.1z
	 M11.2,6.6c-0.2,0-0.4-0.1-0.6-0.1c-1,0-1.9,0.4-2.6,1.1C7.5,8.1,7.2,8.7,7,9.3H2.4c-0.2,0-0.4,0.2-0.4,0.4s0.2,0.4,0.4,0.4h4.5
	c0,0.1,0,0.1,0,0.2c0,0.3,0,0.6,0.1,0.9H2.4c-0.2,0-0.4,0.2-0.4,0.4c0,0.2,0.2,0.4,0.4,0.4h4.9c0.2,0.3,0.4,0.6,0.7,0.9
	c0.7,0.7,1.6,1.1,2.6,1.1c0.2,0,0.4,0,0.6-0.1v0.4h0c0,0.1-0.1,0.3-0.1,0.4c-0.1,0.1-0.2,0.1-0.4,0.1H1.3v0c-0.1,0-0.3-0.1-0.4-0.1
	c-0.1-0.1-0.1-0.2-0.1-0.4l0,0v-13C0.8,1.2,0.9,1.1,1,1c0.1-0.1,0.2-0.1,0.4-0.1l0,0v0l6,0v2.6c0,0.4,0.1,0.7,0.4,0.9l0,0
	c0.2,0.2,0.6,0.4,0.9,0.4h2.6L11.2,6.6L11.2,6.6z M4.4,2.7C4,2.7,3.6,2.9,3.2,3.2C2.9,3.5,2.7,3.9,2.7,4.4c0,0.5,0.2,0.9,0.5,1.2
	C3,5.7,2.8,5.9,2.7,6l0,0C2.2,6.5,1.9,7.1,1.9,7.8c0,0.2,0.2,0.4,0.4,0.4h4.2C6.8,8.2,7,8,7,7.8C7,7.1,6.7,6.5,6.2,6l0,0
	C6.1,5.9,5.9,5.7,5.7,5.6C6,5.3,6.1,4.9,6.1,4.4c0-0.5-0.2-0.9-0.5-1.2C5.3,2.9,4.9,2.7,4.4,2.7L4.4,2.7z M5.1,3.8
	C4.9,3.6,4.7,3.5,4.4,3.5C4.2,3.5,4,3.6,3.8,3.8C3.7,4,3.6,4.2,3.6,4.4c0,0.2,0.1,0.5,0.3,0.6C4,5.2,4.2,5.3,4.4,5.3h0
	c0.2,0,0.5-0.1,0.6-0.3l0,0c0.2-0.2,0.3-0.4,0.3-0.6C5.3,4.2,5.2,4,5.1,3.8L5.1,3.8z M5.6,6.6C5.3,6.3,4.9,6.1,4.4,6.1h0
	C4,6.1,3.6,6.3,3.3,6.6C3,6.8,2.9,7.1,2.8,7.4h3.3C6,7.1,5.8,6.8,5.6,6.6L5.6,6.6z M10.6,3.9L8.1,1.4v2c0,0.1,0.1,0.3,0.1,0.4l0,0
	c0.1,0.1,0.2,0.1,0.4,0.1H10.6z"/>
</svg>
