<?xml version="1.0" encoding="utf-8"?>
<!-- Generator: Adobe Illustrator 18.1.1, SVG Export Plug-In . SVG Version: 6.00 Build 0)  -->
<svg version="1.1" id="Layer_1" xmlns="http://www.w3.org/2000/svg" xmlns:xlink="http://www.w3.org/1999/xlink" x="0px" y="0px"
	 viewBox="0 0 15.5 15.5" enable-background="new 0 0 15.5 15.5" xml:space="preserve">
<path fill-rule="evenodd" clip-rule="evenodd" fill="#FFFFFF" d="M4.3,1.8C4.1,1.9,3.8,2,3.6,2.2l4.2,5l4.8-4.3
	C11.8,2,10.7,1.4,9.5,1.1C7.8,0.6,5.9,0.8,4.3,1.8L4.3,1.8L4.3,1.8z M15.4,6.4L15.4,6.4L15.4,6.4c0.2,1.1,0.1,2.3-0.2,3.3
	c-0.5,1.9-1.7,3.6-3.6,4.7c0,0,0,0-0.1,0c-1.8,1.1-3.9,1.3-5.9,0.8c-1.9-0.5-3.6-1.7-4.7-3.6c0,0,0,0,0-0.1C0,9.7-0.2,7.6,0.3,5.7
	c0.4-1.5,1.3-2.9,2.5-3.9l0,0l0,0c0.3-0.3,0.7-0.5,1.1-0.7c0,0,0,0,0.1,0C5.8,0,7.8-0.2,9.8,0.3c1.9,0.5,3.6,1.7,4.7,3.6
	c0,0,0,0,0,0.1C14.9,4.7,15.2,5.6,15.4,6.4L15.4,6.4z M14.6,7c0.1,0.9,0,1.7-0.2,2.5c-0.5,1.7-1.6,3.2-3.2,4.2l0,0
	c-1.7,1-3.5,1.1-5.3,0.7c-0.1,0-0.2,0-0.2-0.1l2.3-6.3L14.6,7L14.6,7z M9.1,7.1l4.1-3.7c0.2,0.3,0.4,0.5,0.6,0.8l0,0
	c0.3,0.6,0.6,1.2,0.7,1.9L9.1,7.1L9.1,7.1z M3,2.7l4.3,5.1L5,14.1c-1.3-0.6-2.4-1.5-3.2-2.9C0.8,9.6,0.6,7.7,1.1,6
	C1.4,4.7,2,3.6,3,2.7z"/>
</svg>
