<?xml version="1.0" encoding="utf-8"?>
<!-- Generator: Adobe Illustrator 18.1.1, SVG Export Plug-In . SVG Version: 6.00 Build 0)  -->
<svg version="1.1" id="Layer_1" xmlns="http://www.w3.org/2000/svg" xmlns:xlink="http://www.w3.org/1999/xlink" x="0px" y="0px"
	 viewBox="0 0 15.2 18.2" enable-background="new 0 0 15.2 18.2" xml:space="preserve">
<path fill-rule="evenodd" clip-rule="evenodd" fill="#FFFFFF" d="M9,10.5c0.1,0,0.2-0.1,0.3-0.1c0.1-0.1,0.2-0.1,0.4-0.2l0,0
	c0.6-0.4,1-1,1.1-1.7c0.1-0.7,0-1.4-0.4-2l0,0C9.9,6,9.3,5.6,8.7,5.5C8.2,5.4,7.6,5.4,7.1,5.6l1.2,1.7c0.1,0.2,0.1,0.4-0.1,0.6
	C8.1,7.9,8,8,8,7.9c-1.3,0-2.5,0-3.8,0c-1.3,0-2.5,0-3.8,0C0.2,7.9,0,7.8,0,7.5c0,0,0-0.1,0-0.1l0,0l2.5-7.1C2.7,0.1,2.9-0.1,3.1,0
	c0.1,0,0.2,0.1,0.2,0.2l1.2,1.7C6,1,7.8,0.7,9.4,1c1.8,0.3,3.4,1.3,4.5,2.9l0,0c1.1,1.6,1.5,3.5,1.2,5.3c-0.3,1.8-1.3,3.5-2.9,4.6
	l0,0c-0.4,0.3-0.9,0.6-1.4,0.8c-0.4,0.2-0.9,0.3-1.3,0.4c0,0,0,0.1,0,0.1c-0.3,0.6-0.6,1.1-1.1,1.6c-0.5,0.5-1,0.8-1.6,1.1
	c-0.6,0.2-1.2,0.4-1.9,0.4S3.6,18.1,3,17.8c-0.6-0.3-1.1-0.6-1.6-1.1l0,0c-0.4-0.4-0.8-1-1-1.6C0.1,14.6,0,14,0,13.3
	c0-0.7,0.1-1.3,0.4-1.9c0.3-0.6,0.6-1.1,1.1-1.6C1.9,9.4,2.4,9,3,8.8c0.6-0.2,1.2-0.4,1.9-0.4s1.3,0.1,1.9,0.4
	C7.4,9,7.9,9.4,8.4,9.8C8.6,10,8.8,10.3,9,10.5L9,10.5z M4.6,14.2L4.6,14.2L5,16.5c0,0.2,0.2,0.4,0.5,0.4c0.2,0,0.4-0.2,0.4-0.5
	L5.4,14c0.1,0,0.2-0.1,0.2-0.2c0.1-0.2,0.1-0.4-0.1-0.6l0,0l2-2c0.2-0.2,0.2-0.4,0-0.6c-0.2-0.2-0.4-0.2-0.6,0l-1.7,1.7l0-0.1
	c0-0.2-0.2-0.4-0.5-0.4c-0.2,0-0.4,0.2-0.4,0.4l-1.3-1c-0.2-0.1-0.4-0.1-0.6,0.1c-0.1,0.2-0.1,0.4,0.1,0.6l1.7,1.3L4,13.6
	c-0.2,0.2-0.2,0.4,0,0.6C4.2,14.4,4.4,14.4,4.6,14.2L4.6,14.2z M8.8,14.6C8.8,14.6,8.8,14.6,8.8,14.6C8.9,14.2,9,13.7,9,13.3
	c0-0.6-0.1-1.1-0.3-1.6c-0.2-0.5-0.5-0.9-0.9-1.3C7.4,10,7,9.7,6.5,9.5C6,9.3,5.5,9.2,4.9,9.2c-0.6,0-1.1,0.1-1.6,0.3
	C2.9,9.7,2.4,10,2,10.4c-0.4,0.4-0.7,0.8-0.9,1.3c-0.2,0.5-0.3,1-0.3,1.6c0,0.6,0.1,1.1,0.3,1.6c0.2,0.5,0.5,0.9,0.9,1.3l0,0
	c0.4,0.4,0.8,0.7,1.3,0.9c0.5,0.2,1,0.3,1.6,0.3c0.6,0,1.1-0.1,1.6-0.3c0.5-0.2,0.9-0.5,1.3-0.9c0.4-0.4,0.7-0.8,0.9-1.3
	C8.7,14.8,8.8,14.7,8.8,14.6L8.8,14.6z M9.8,14.2c0.2-0.1,0.5-0.1,0.7-0.2c0.4-0.2,0.8-0.4,1.2-0.7c0,0,0,0,0,0
	c1.4-1,2.3-2.5,2.6-4.1c0.3-1.6-0.1-3.3-1-4.7c0,0,0,0,0,0c-1-1.4-2.4-2.3-4-2.6C7.7,1.5,6,1.8,4.6,2.8C4.4,2.9,4.2,2.8,4,2.7
	l-1-1.4L1,7.1l6.2,0l-1-1.4C6.1,5.5,6.1,5.3,6.2,5.1C6.3,5.1,6.4,5,6.5,5l0.1,0c0.8-0.4,1.6-0.5,2.4-0.3c0.8,0.2,1.5,0.7,2,1.3l0,0
	c0.5,0.8,0.7,1.7,0.6,2.6c-0.1,0.9-0.6,1.7-1.4,2.2l0,0c-0.1,0.1-0.3,0.2-0.5,0.3c-0.1,0-0.1,0.1-0.2,0.1c0,0,0,0.1,0.1,0.1
	c0.2,0.6,0.4,1.2,0.4,1.9C9.8,13.6,9.8,13.9,9.8,14.2z"/>
</svg>
